<?xml version="1.0" encoding="UTF-8"?>
<svg id="katman_1" xmlns="http://www.w3.org/2000/svg" version="1.1" viewBox="0 0 1032.51 1032.51">
  <!-- Generator: Adobe Illustrator 30.6.0, SVG Export Plug-In . SVG Version: 2.1.4 Build 109)  -->
  <defs>
    <style>
      .st0 {
        fill: #57c7fe;
      }

      .st1 {
        fill: #f1f1f1;
      }
    </style>
  </defs>
  <rect class="st1" width="1032.51" height="1032.51"/>
  <g>
    <path class="st0" d="M274.88,528.42l47.3-.02,12.14.07-.02,36.31-.03,36.41c-2.09-.37-5.36-.47-5.93,1.05-.44,1.16.19,3.57-.23,4.28-.56.94-3.2,1.14-4.91.45-1.78,1.77-.84,4.17-1.42,5.87l-3.68.78c-.93.2-1.32,2.82-.58,5.18-4.08,1.27-7.75.35-12.22.53,0,2.62.26,4.41-.91,6.36-1.66-.44-3.76-.51-4.52-.09-.96.53-1.27,2.97-.4,5.18l-6.68,1.39c.46,1.88.5,3.81.1,4.63-.48.98-3.04,1.24-5.31.5-1.31,4.1-.37,7.89-.53,12.19l-6.11.38v11.94s-.04,42.23-.04,42.23l6.02.4.08,5.92c.01,1.03-.49,3.19.15,4.13s3.18,1.08,5.33.47c1.28,4.05.36,7.86.52,12.16l6.11.37.02,11.77,6.11.38c.14,4.27-.71,8.16.48,12.09,2.17-.33,3.69-.33,4.82-.01s.75,3.49.67,4.69c1.12,2.25,4.48,1.18,6.02,1.19l.12,11.98,4.84.19c0,1.57-1.12,5.09,1.23,6.05,1.16-.01,4.34-.45,4.66.73s.34,2.57-.09,4.69l6.66,1.36c-.86,2.27-.56,5.17.39,5.22l4.31.25c1.45.08,1.43,3.91.91,5.79l12.07.15.36-6.06,18,.02h18s.41-6.03.41-6.03l30.04-.29c.47-2.74.31-5.17-.69-5.6-.83-.36-2.77-.35-4.89-.04l-.41-18.18-6.07-.18-.02-11.95-6.03-.35-.02-11.78-6.05-.35-.02-11.78-6.04-.34-.04-10.62-6.04-.13.03-30.11-6.1-.41v-17.81s-6.08-.42-6.08-.42l.02-48.29v-36.39s48.52,0,48.52,0h24.21s.07,11.95.07,11.95l6.06.38-.02,23.91,6.07.15-.03,30.11,6.08.39.04,11.83,6.04.12v6.07s.09,5.91.09,5.91l5.97.33.02,11.78,6.04.34.02,11.78,6.06.36v17.82s5.57.2,5.57.2c.42,1.02.04,3.24.65,4.15s3.21,1.08,5.3.46c1.37,4.12.3,7.75.65,12.44,2.05-.49,5.81-.49,5.9.94l.25,4.31c.06.96,3.05,1.22,5.08.4,1.28,2.05.99,3.87.89,6.27l6.03.12c1.78.03,3.66.36,6.05-.27-.07-1.61-.21-4.02.17-5.09.43-1.22,4.36-.14,5.5-1.18.78-.71-.02-4.03.58-4.9s3.09-1.06,5.24-.55c1.58-3.5.21-8.46.79-11.96l5.17-.48c1.24-.12,1.06-3.33.76-4.68l6.06-.14v-17.87s6.06-.36,6.06-.36l.02-11.76,5.97-.46.37-11.51c.86-.67,4.16-.02,5.06-.53,1.21-.69.73-3.62.73-5.22l-.02-6.73,6.04-.15.03-11.8,6.08-.39-.03-30.11,6.07-.15-.02-23.92,6.06-.37.07-11.96h24.21s48.52,0,48.52,0v36.39s.03,48.29.03,48.29l-6.1.43v17.8s-6.09.41-6.09.41l.03,30.11-6.04.13-.04,10.62-6.04.34-.02,11.78-6.05.35-.02,11.78-6.03.35-.02,11.95-6.07.18-.41,18.18c-2.12-.32-4.08-.31-4.88.04-1,.42-1.16,2.87-.69,5.6l30.04.29.41,6.04h18s18-.03,18-.03l.36,6.06,12.07-.15c-.52-1.88-.53-5.7.91-5.79l4.31-.25c.95-.06,1.25-2.95.39-5.22l6.66-1.36c-.43-2.12-.41-3.51-.09-4.69s3.49-.75,4.68-.7c2.28-1.05,1.2-4.48,1.21-6.02l4.84-.24.09-11.98c1.54-.01,5.01,1.06,6.02-1.2,0-1.17-.48-4.34.71-4.68,1.12-.32,2.64-.32,4.81.01,1.18-3.93.33-7.83.48-12.09l6.11-.38.02-11.77,6.11-.37c.16-4.3-.76-8.11.52-12.16,2.15.61,4.7.44,5.33-.47s.14-3.1.15-4.12l.08-5.92,6.02-.4-.04-42.23v-11.94s-6.11-.38-6.11-.38c-.16-4.31.77-8.1-.53-12.19-2.29.75-4.82.48-5.31-.5-.39-.78-.36-2.78.1-4.63l-6.68-1.4c.88-2.2.57-4.67-.4-5.18-.78-.42-2.83-.35-4.52.09-1.17-1.95-.91-3.74-.91-6.36-4.47-.18-8.14.74-12.22-.52.75-2.41.26-4.49-.6-5.18-.6-.48-2.74-.44-3.71-.69-.44-1.91.28-4.16-1.3-6-1.83.74-4.92.54-4.97-.43l-.24-4.29c-.08-1.51-3.85-1.41-5.92-1.03l-.03-36.4-.02-36.31,12.14-.07,47.3.02,18.41.35c-.66,2.57-.37,4.87.48,5.5s4.11-.23,4.95.62.02,4.04.59,4.94c.66,1.04,3.05.68,4.88.84,1.35.12,1.48,4.11.89,5.76l12.09.2.32,5.94,5.93.1c0,1.6-1.14,5.05,1.23,6.02,1.33.07,4.07-.42,4.7.73.48.87-.02,3.3.09,4.17,1.18,2.21,4.41,1.17,6.04,1.17l.04,18.02,6.08.38v17.82s6.05.37,6.05.37v11.95s0,48.52,0,48.52v48.51s.03,34.96.03,34.96l-6.07.4-.02,11.94-.03,11.95-6.03.36-.1,18.09c-1.96-.47-5.78-.5-5.86.95l-.25,4.3c-.05.95-3.01,1.21-5.35.49-1.28,4.06-.36,7.91-.53,12.16l-6.08.51-.26,17.59-5.16.5c-.93.09-1.16,3.03-.36,5.18l-6.65,1.38c.46,1.84.49,3.86.1,4.63-.49.97-3.02,1.24-5.31.5-1.3,4.1-.37,7.88-.53,12.2l-6.04.35-.14,5.93c-1.58,0-5.84-1.1-5.94,1.14l-.19,4.19c-.04.93-3.05,1.19-5.09.39-1.27,2.04-.99,3.87-.89,6.27l-6.02.13h-11.95s-.4,6.09-.4,6.09l-34.96-.03h-48.51s-11.95,0-11.95,0l-.4-6.08-36.17.03-.16-6.08-36.01.04-.4-6.08h-11.94s-18.19-.01-18.19-.01l-.17-6.07-23.89.02-.35-5.98-5.91-.1-5.91.11-.35,5.96-23.92-.02-.14,6.07h-18.19s-11.95.01-11.95.01l-.39,6.08-36.01-.04-.16,6.08-36.17-.03-.41,6.08h-11.94s-48.51,0-48.51,0l-34.96.03-.4-6.08-12.03-.03c-1.53,0-5.82,1.1-5.92-1.14l-.19-4.19c-.04-.93-3.05-1.19-5.09-.39-1.27-2.04-.99-3.87-.89-6.27l-6.03-.12-.08-5.91-6.04-.35c-.16-4.32.77-8.1-.53-12.2-2.29.75-4.82.46-5.32-.5-.38-.75-.36-2.79.1-4.63l-6.65-1.38c.8-2.15.52-4.61-.36-5.18s-4.02.14-5.16-.5l-.26-17.59-6.08-.51c-.16-4.25.76-8.1-.53-12.16-2.35.72-5.3.46-5.35-.49l-.24-4.28c-.08-1.5-3.88-1.44-5.87-.97l-.1-18.09-6.03-.36-.03-11.95-.02-11.94-6.07-.4.03-34.96v-48.51s0-48.52,0-48.52v-11.95s6.06-.37,6.06-.37v-17.82s6.07-.38,6.07-.38l.04-18.02c1.61,0,4.9,1.03,6.03-1.17.14-.85-.4-3.3.11-4.17.63-1.09,3.31-.69,4.72-.7,2.31-1.03,1.19-4.46,1.19-6.01l5.93-.14.32-5.94,12.09-.2c-.6-1.65-.49-5.63.91-5.76,1.81-.17,4.17.24,4.86-.85.56-.9-.2-4.01.63-4.96.71-.82,4.09.07,4.93-.58s1.13-2.93.47-5.51l18.41-.35Z"/>
    <path class="st0" d="M322.19,159.65h48.51s11.94,0,11.94,0l.41,6.08,36.17-.03.16,6.08,36.01-.04.4,6.08h11.94s18.19.01,18.19.01l.17,6.07,23.89-.02.35,5.98,5.91.1,5.91-.11.35-5.96,23.92.02.14-6.07h18.19s11.95-.01,11.95-.01l.39-6.08,36.01.04.16-6.08,36.17.03.41-6.08h11.94s48.51,0,48.51,0l34.96-.03.41,6.09,12.01.02c1.54,0,5.82-1.09,5.92,1.13l.2,4.2c.04.94,3.06,1.19,5.09.39,1.27,2.05.99,3.87.89,6.27l6.03.12.08,5.9,6.04.36c.15,4.28-.73,8.15.49,12.11,1.93-.36,4.03-.4,4.77-.02.97.5,1.24,3.1.41,5.04,2.08,1.32,3.94.93,6.41.99-.07,2.09-.27,4.06.2,5.2.4.97,3.11,1.21,5.4.51l.44,18.23,6.04.37.16,12.06c1.92-.52,5.74-.53,5.83.92l.25,4.31c.05.95,2.96,1.21,5.48.5l.43,18.23,6.06.38.02,11.95.02,11.95,6.07.4-.03,34.96v48.51s0,48.52,0,48.52v11.95s-6.06.36-6.06.36v17.82s-6.07.38-6.07.38l-.03,18.03c-1.55,0-5.03-1.16-5.99,1.22-.08,1.34.41,4.05-.74,4.7-.87.49-3.32-.03-4.16.11-2.22,1.14-1.18,4.41-1.18,6.03l-5.93.14-.32,5.94-12.08.19c.59,1.69.48,5.62-.9,5.76-1.77.17-4.27-.15-4.86.84-.54.91.19,4.07-.62,4.97-.75.83-4.1-.05-4.94.59s-1.13,2.93-.47,5.51l-18.41.35-47.3.02-12.14-.07.02-36.31.03-36.4c2.05.38,5.83.45,5.91-1.01l.25-4.31c.06-.97,3.18-1.16,4.93-.44,1.71-1.79.84-4.16,1.37-5.89l3.7-.78c.95-.2,1.33-2.84.58-5.18,4.08-1.27,7.75-.35,12.22-.53,0-2.62-.26-4.41.91-6.36,1.66.44,3.77.5,4.51.09.96-.53,1.27-2.97.4-5.19l6.68-1.39c-.46-1.88-.5-3.81-.1-4.64.48-.98,3.04-1.24,5.31-.49,1.31-4.1.37-7.89.53-12.19l6.11-.38v-11.94s.04-42.23.04-42.23l-6.02-.39-.08-5.92c-.01-1.02.49-3.19-.15-4.13s-3.18-1.08-5.33-.47c-1.28-4.05-.36-7.86-.52-12.16l-6.11-.37-.02-11.77-6.11-.38c-.14-4.27.71-8.16-.48-12.09-2.17.33-3.69.33-4.82.01-1.18-.33-.72-3.51-.7-4.68-1.04-2.27-4.48-1.2-6-1.21l-.11-11.98-4.83-.19c0-1.6,1.09-5.04-1.22-6.07-1.16.02-4.35.46-4.67-.71s-.33-2.57.09-4.69l-6.66-1.36c.86-2.27.53-4.63-.39-5.22-.69-.45-3.04.19-4.31-.25-1.42-.49-1.43-3.91-.91-5.79l-12.07-.15-.36,6.06-18-.02h-18s-.41,6.03-.41,6.03l-30.04.29c-.47,2.74-.3,5.17.69,5.6.82.35,2.77.35,4.89.04l.41,18.18,6.07.18.02,11.95,6.03.35.02,11.78,6.05.35.02,11.78,6.04.34.04,10.62,6.04.13-.03,30.11,6.1.41v17.81s6.08.42,6.08.42l-.02,48.29v36.39s-48.52,0-48.52,0h-24.21s-.07-11.95-.07-11.95l-6.06-.38.02-23.91-6.07-.15.03-30.11-6.08-.39-.04-11.83-6.04-.12v-6.07s-.09-5.91-.09-5.91l-5.97-.33-.02-11.78-6.04-.34-.02-11.78-6.06-.36v-17.82s-5.57-.2-5.57-.2c-.42-1.02-.04-3.24-.65-4.15s-3.21-1.08-5.3-.46c-1.37-4.12-.3-7.75-.65-12.44-2.05.49-5.41.46-5.9-.94-.44-1.28.17-3.61-.25-4.31-.57-.93-3.06-1.22-5.08-.4-1.28-2.05-.99-3.87-.89-6.27l-6.03-.12c-1.78-.03-3.66-.37-6.05.27.08,1.56.21,4.05-.16,5.08-.45,1.23-4.39.18-5.48,1.16-.8.73,0,4.05-.6,4.92s-3.09,1.06-5.24.55c-1.58,3.5-.21,8.45-.79,11.96l-5.17.48c-1.24.12-1.06,3.33-.76,4.68l-6.06.14v17.87s-6.06.36-6.06.36l-.02,11.76-5.98.45-.36,11.52c-.9.65-4.16.02-5.07.52-1.21.67-.74,3.63-.73,5.22l.02,6.73-6.04.15-.03,11.8-6.08.39.03,30.11-6.07.15.02,23.92-6.06.37-.07,11.96h-24.21s-48.52,0-48.52,0v-36.39s-.03-48.29-.03-48.29l6.1-.43v-17.8s6.09-.41,6.09-.41l-.03-30.11,6.04-.13.04-10.62,6.04-.34.02-11.78,6.05-.35.02-11.78,6.03-.35.02-11.95,6.07-.15.45-18.28c2.41.6,4.91.45,5.49-.47.43-.69.24-2.89.1-5.11l-30.08-.28-.42-6.05h-17.99s-18,.03-18,.03l-.37-6.04c-4.32,0-8.13-.61-12.22.51.76,2.42.45,4.79-.47,5.38-.69.44-3.08-.21-4.29.24-1.46.54-1.42,3.83-.91,5.75-2.79.18-4.37-.24-6.53,1.06.82,2.02.53,4.48-.38,5.08-.68.45-3.26-.23-4.2.19-2.19.98-1.13,4.39-1.13,5.92l-4.84.26-.11,11.97c-1.52,0-4.99-.99-5.91,1.1-.43.98.25,3.54-.2,4.21-.61.9-3.01,1.18-5.36.47-1.28,4.07-.36,7.88-.52,12.19l-6.11.37-.02,11.76-5.98.45-.35,11.54c-.93.6-4.14.03-5.03.49-1.29.67-.75,3.23-.77,4.64l-.08,5.95-6,.39.04,42.23v11.94s6.11.38,6.11.38c.15,4.27-.73,8.15.49,12.1,1.93-.36,4.02-.4,4.77-.02.97.5,1.24,3.1.39,5.03,2.18,1.33,3.74.89,6.54,1.07-.51,1.94-.57,5.19.93,5.76,1.16.44,3.58-.2,4.28.23.93.57,1.14,3.07.57,5.27,3.55,1.6,8.47.22,11.95.8.58,1.23,0,4.23.58,5.06s2.47,1.19,4.46,1.06c.11,2.41-.18,4.18.96,6.12,1.67-.44,3.72-.49,4.51-.1.98.49,1.25,3.09.4,5.03,2.11,1.34,3.84.95,6.43,1.04l-.02,36.22v36.31s-12.13.07-12.13.07l-47.31-.02-18.37-.33c.37-2.2.41-4.17,0-4.95-.5-.97-2.99-1.27-5.17-.39l-1.4-6.68c-1.85.46-3.84.5-4.63.1-.97-.49-1.24-3.03-.49-5.31-4.1-1.3-7.88-.37-12.2-.53l-.35-6.04-5.92-.14c0-1.54,1.1-5.82-1.14-5.93l-4.18-.19c-1.18-.05-.72-3.45-.69-4.71-1.13-2.37-4.46-1.22-6.04-1.22l-.04-18.03-6.08-.38v-17.82s-6.05-.36-6.05-.36v-11.95s0-48.52,0-48.52v-48.51s-.03-34.96-.03-34.96l6.07-.4.02-11.95.02-11.95,6.06-.38.43-18.23c2.52.71,4.89.41,5.48-.5.44-.69-.2-3.05.25-4.3.51-1.43,3.9-1.44,5.83-.92l.16-12.06,6.04-.37.44-18.22c2.3.7,4.99.44,5.41-.53.45-1.02.27-3.17.2-5.18,2.47-.08,4.32.33,6.41-1-.83-1.92-.58-4.55.42-5.04.77-.38,2.78-.34,4.76.02,1.21-3.96.34-7.83.49-12.11l6.04-.36.08-5.9,6.02-.12c-.1-2.4-.36-4.24.87-6.26,2.14.8,4.47.5,5.1-.39.48-.66-.2-3.3.2-4.21.94-2.13,4.4-1.13,5.93-1.13h11.98s.43-6.1.43-6.1l34.96.03Z"/>
  </g>
</svg>